HIERARCHY
ROOT pelvis
{
	OFFSET 0.003123 -0.351407 0.012037
	CHANNELS 6 Xposition Yposition Zposition Zrotation Yrotation Xrotation 
	JOINT left_hip
	{
		OFFSET 0.058189 -0.092763 -0.026001
		CHANNELS 3 Zrotation Yrotation Xrotation
		JOINT left_knee
		{
			OFFSET 0.054695 -0.378753 -0.009396
			CHANNELS 3 Zrotation Yrotation Xrotation
			JOINT left_ankle
			{
				OFFSET -0.043453 -0.403059 -0.031876
				CHANNELS 3 Zrotation Yrotation Xrotation
				JOINT left_foot
				{
					OFFSET 0.047257 -0.057997 0.118216
					CHANNELS 3 Zrotation Yrotation Xrotation
					End Site
					{
						OFFSET 0.000000 0.000000 0.000000
					}
				}
			}
		}
	}
	JOINT right_hip
	{
		OFFSET -0.063267 -0.103908 -0.021250
		CHANNELS 3 Zrotation Yrotation Xrotation
		JOINT right_knee
		{
			OFFSET -0.044210 -0.362380 -0.016824
			CHANNELS 3 Zrotation Yrotation Xrotation
			JOINT right_ankle
			{
				OFFSET 0.015417 -0.410728 -0.020192
				CHANNELS 3 Zrotation Yrotation Xrotation
				JOINT right_foot
				{
					OFFSET -0.038812 -0.058328 0.119049
					CHANNELS 3 Zrotation Yrotation Xrotation
					End Site
					{
						OFFSET 0.000000 0.000000 0.000000
					}
				}
			}
		}
	}
	JOINT spine_1
	{
		OFFSET -0.002763 0.109891 -0.027618
		CHANNELS 3 Zrotation Yrotation Xrotation
		JOINT spine_2
		{
			OFFSET 0.009448 0.131853 -0.005940
			CHANNELS 3 Zrotation Yrotation Xrotation
			JOINT spine_3
			{
				OFFSET -0.011330 0.052235 0.028447
				CHANNELS 3 Zrotation Yrotation Xrotation
				JOINT neck
				{
					OFFSET -0.012164 0.165167 -0.031615
					CHANNELS 3 Zrotation Yrotation Xrotation
					JOINT head
					{
						OFFSET 0.024783 0.160452 0.020737
						CHANNELS 3 Zrotation Yrotation Xrotation
						End Site
						{
							OFFSET 0.000000 0.000000 0.000000
						}
					}
				}
				JOINT left_collar
				{
					OFFSET 0.046364 0.084944 -0.007220
					CHANNELS 3 Zrotation Yrotation Xrotation
					JOINT left_shoulder
					{
						OFFSET 0.119239 0.057728 -0.015461
						CHANNELS 3 Zrotation Yrotation Xrotation
						JOINT left_elbow
						{
							OFFSET 0.254123 -0.072151 -0.042459
							CHANNELS 3 Zrotation Yrotation Xrotation
							JOINT left_wrist
							{
								OFFSET 0.251987 0.023221 -0.002472
								CHANNELS 3 Zrotation Yrotation Xrotation
								JOINT left_index_1
								{
									OFFSET 0.101902 -0.008688 0.019351
									CHANNELS 3 Zrotation Yrotation Xrotation
									JOINT left_index_2
									{
										OFFSET 0.030149 -0.011154 0.001151
										CHANNELS 3 Zrotation Yrotation Xrotation
										JOINT left_index_3
										{
											OFFSET 0.006504 -0.021577 -0.002433
											CHANNELS 3 Zrotation Yrotation Xrotation
											End Site
											{
												OFFSET 0.000000 0.000000 0.000000
											}
										}
									}
								}
								JOINT left_middle_1
								{
									OFFSET 0.109398 -0.006328 -0.003981
									CHANNELS 3 Zrotation Yrotation Xrotation
									JOINT left_middle_2
									{
										OFFSET 0.026472 -0.015218 -0.004641
										CHANNELS 3 Zrotation Yrotation Xrotation
										JOINT left_middle_3
										{
											OFFSET 0.005022 -0.023347 -0.001911
											CHANNELS 3 Zrotation Yrotation Xrotation
											End Site
											{
												OFFSET 0.000000 0.000000 0.000000
											}
										}
									}
								}
								JOINT left_pinky_1
								{
									OFFSET 0.084047 -0.014539 -0.043750
									CHANNELS 3 Zrotation Yrotation Xrotation
									JOINT left_pinky_2
									{
										OFFSET 0.012124 -0.014448 -0.005375
										CHANNELS 3 Zrotation Yrotation Xrotation
										JOINT left_pinky_3
										{
											OFFSET 0.003798 -0.018853 0.000167
											CHANNELS 3 Zrotation Yrotation Xrotation
											End Site
											{
												OFFSET 0.000000 0.000000 0.000000
											}
										}
									}
								}
								JOINT left_ring_1
								{
									OFFSET 0.097444 -0.009268 -0.027345
									CHANNELS 3 Zrotation Yrotation Xrotation
									JOINT left_ring_2
									{
										OFFSET 0.023561 -0.016057 -0.001895
										CHANNELS 3 Zrotation Yrotation Xrotation
										JOINT left_ring_3
										{
											OFFSET 0.004257 -0.023548 0.000814
											CHANNELS 3 Zrotation Yrotation Xrotation
											End Site
											{
												OFFSET 0.000000 0.000000 0.000000
											}
										}
									}
								}
								JOINT left_thumb_1
								{
									OFFSET 0.040636 -0.017977 0.025611
									CHANNELS 3 Zrotation Yrotation Xrotation
									JOINT left_thumb_2
									{
										OFFSET 0.021637 -0.017639 0.011623
										CHANNELS 3 Zrotation Yrotation Xrotation
										JOINT left_thumb_3
										{
											OFFSET 0.024002 -0.008356 0.006548
											CHANNELS 3 Zrotation Yrotation Xrotation
											End Site
											{
												OFFSET 0.000000 0.000000 0.000000
											}
										}
									}
								}
							}
						}
					}
				}
				JOINT right_collar
				{
					OFFSET -0.047695 0.084339 -0.013400
					CHANNELS 3 Zrotation Yrotation Xrotation
					JOINT right_shoulder
					{
						OFFSET -0.102578 0.053524 -0.012669
						CHANNELS 3 Zrotation Yrotation Xrotation
						JOINT right_elbow
						{
							OFFSET -0.271150 -0.036492 -0.026467
							CHANNELS 3 Zrotation Yrotation Xrotation
							JOINT right_wrist
							{
								OFFSET -0.249267 -0.004533 -0.015325
								CHANNELS 3 Zrotation Yrotation Xrotation
								JOINT right_index_1
								{
									OFFSET -0.099881 -0.011783 0.019600
									CHANNELS 3 Zrotation Yrotation Xrotation
									JOINT right_index_2
									{
										OFFSET -0.030148 -0.011154 0.001151
										CHANNELS 3 Zrotation Yrotation Xrotation
										JOINT right_index_3
										{
											OFFSET -0.006505 -0.021577 -0.002432
											CHANNELS 3 Zrotation Yrotation Xrotation
											End Site
											{
												OFFSET 0.000000 0.000000 0.000000
											}
										}
									}
								}
								JOINT right_middle_1
								{
									OFFSET -0.107376 -0.009422 -0.003734
									CHANNELS 3 Zrotation Yrotation Xrotation
									JOINT right_middle_2
									{
										OFFSET -0.026472 -0.015218 -0.004641
										CHANNELS 3 Zrotation Yrotation Xrotation
										JOINT right_middle_3
										{
											OFFSET -0.005022 -0.023347 -0.001911
											CHANNELS 3 Zrotation Yrotation Xrotation
											End Site
											{
												OFFSET 0.000000 0.000000 0.000000
											}
										}
									}
								}
								JOINT right_pinky_1
								{
									OFFSET -0.082027 -0.017634 -0.043503
									CHANNELS 3 Zrotation Yrotation Xrotation
									JOINT right_pinky_2
									{
										OFFSET -0.012123 -0.014448 -0.005374
										CHANNELS 3 Zrotation Yrotation Xrotation
										JOINT right_pinky_3
										{
											OFFSET -0.003798 -0.018852 0.000167
											CHANNELS 3 Zrotation Yrotation Xrotation
											End Site
											{
												OFFSET 0.000000 0.000000 0.000000
											}
										}
									}
								}
								JOINT right_ring_1
								{
									OFFSET -0.095423 -0.012362 -0.027099
									CHANNELS 3 Zrotation Yrotation Xrotation
									JOINT right_ring_2
									{
										OFFSET -0.023561 -0.016057 -0.001895
										CHANNELS 3 Zrotation Yrotation Xrotation
										JOINT right_ring_3
										{
											OFFSET -0.004257 -0.023548 0.000816
											CHANNELS 3 Zrotation Yrotation Xrotation
											End Site
											{
												OFFSET 0.000000 0.000000 0.000000
											}
										}
									}
								}
								JOINT right_thumb_1
								{
									OFFSET -0.038613 -0.021074 0.025861
									CHANNELS 3 Zrotation Yrotation Xrotation
									JOINT right_thumb_2
									{
										OFFSET -0.021636 -0.017639 0.011623
										CHANNELS 3 Zrotation Yrotation Xrotation
										JOINT right_thumb_3
										{
											OFFSET -0.024004 -0.008353 0.006547
											CHANNELS 3 Zrotation Yrotation Xrotation
											End Site
											{
												OFFSET 0.000000 0.000000 0.000000
											}
										}
									}
								}
							}
						}
					}
				}
			}
		}
	}
}
MOTION
Frames: 4
Frame Time: 0.050000
0.000027 0.705147 0.000587 -2.645421 2.885642 -44.344997 14.366214 -0.573029 -24.494995 -20.357857 4.566538 72.661467 5.346143 2.442122 -11.092783 0.000000 0.000000 0.000000 -13.338212 -0.237156 -18.766713 18.144018 -10.899611 65.918333 10.137005 30.398213 -6.984486 0.000000 0.000000 0.000000 -8.881010 -1.379008 61.047606 4.170002 -0.411431 10.187741 0.676712 7.950311 -2.663130 -0.059167 -2.114465 11.988447 0.000000 0.000000 0.000000 -3.234261 -23.361735 11.461328 13.012341 -46.011288 -20.571366 18.717617 -78.821655 -9.975755 4.089697 -20.606356 3.213476 -20.560232 -2.967571 -0.080401 2.811007 -0.082005 1.381445 0.000000 0.000000 0.000000 -13.339529 -5.903944 -4.761126 -1.614384 0.567535 2.158032 0.000000 0.000000 0.000000 21.499848 -12.505678 -7.826671 -6.407210 1.500819 7.114895 0.000000 0.000000 0.000000 -5.798901 -3.620118 -2.567289 -3.356143 -0.088639 -0.283523 0.000000 0.000000 0.000000 0.107935 16.073660 14.444674 -6.348123 -2.422453 1.141139 0.000000 0.000000 0.000000 18.996012 17.437733 12.167160 12.423455 38.270690 -1.826470 -76.117794 68.907030 -55.607665 -21.879185 6.403146 -7.408712 2.280870 3.116596 -0.691141 -5.984259 2.024748 -8.899691 0.000000 0.000000 0.000000 2.283087 3.908082 -2.130732 -7.668075 0.709858 -4.507315 0.000000 0.000000 0.000000 -21.488009 10.206201 -6.293740 -8.932840 -1.294617 9.422127 0.000000 0.000000 0.000000 1.459198 2.534981 -1.484486 -11.641920 -0.426453 -3.925250 0.000000 0.000000 0.000000 4.473963 -6.782445 7.180884 9.575736 4.700576 1.047780 0.000000 0.000000 0.000000 
-0.000209 0.705147 -0.000732 -2.696424 2.805132 -44.906538 14.411410 -0.522628 -23.920920 -20.150778 4.382303 72.640265 5.189224 2.106874 -11.027032 0.000000 0.000000 0.000000 -13.147636 -0.203007 -18.163283 18.013109 -10.763792 65.821836 10.223358 30.458146 -6.867521 0.000000 0.000000 0.000000 -9.220701 -1.245445 62.612282 4.091974 -0.583356 9.070864 0.855395 7.695035 -3.123796 -0.303178 -2.229202 12.936585 0.000000 0.000000 0.000000 -3.156822 -22.739428 11.131212 12.022078 -45.791585 -20.089882 15.817561 -79.160197 -7.701874 3.901722 -20.634409 3.722202 -20.857643 -2.847885 -0.086965 1.254603 0.333128 1.920632 0.000000 0.000000 0.000000 -13.297326 -5.740494 -4.705822 0.012996 0.374540 2.329910 0.000000 0.000000 0.000000 22.151933 -12.677790 -7.809388 -7.417072 1.683551 7.520192 0.000000 0.000000 0.000000 -5.051142 -3.657592 -2.557105 -2.792163 0.028567 0.436327 0.000000 0.000000 0.000000 -1.654034 16.730930 15.494303 -6.382477 -2.102385 1.244918 0.000000 0.000000 0.000000 18.865101 18.547256 12.940619 12.887137 37.804549 -1.697850 -76.412476 68.643886 -55.671218 -21.652804 6.329244 -7.188600 1.748995 3.314082 -0.795695 -5.827281 2.015298 -8.645707 0.000000 0.000000 0.000000 2.279120 4.039496 -2.202166 -8.377935 0.765810 -4.682912 0.000000 0.000000 0.000000 -21.045804 10.176407 -6.367580 -9.618241 -1.224397 9.323937 0.000000 0.000000 0.000000 1.190355 2.774372 -1.633658 -11.753262 -0.437465 -3.655005 0.000000 0.000000 0.000000 3.640959 -6.489444 6.587753 10.118620 4.675325 1.223884 0.000000 0.000000 0.000000 
-0.000268 0.705147 -0.000732 -2.731145 2.732529 -44.905660 14.525901 -0.492334 -23.964073 -20.131826 4.393597 72.700530 5.075533 1.969783 -10.867977 0.000000 0.000000 0.000000 -13.040655 -0.178102 -18.176820 17.982093 -10.720971 65.828749 10.251978 30.528266 -6.862637 0.000000 0.000000 0.000000 -9.357613 -1.172376 62.585035 4.087084 -0.570430 9.092127 0.668543 8.459346 -2.823716 0.101464 -2.237774 12.351993 0.000000 0.000000 0.000000 -2.648163 -23.166255 11.301706 12.554922 -45.963249 -20.501888 17.725559 -79.071445 -9.459311 3.948043 -20.489128 3.824336 -20.521990 -2.995491 -0.134661 1.887091 0.249753 1.992243 0.000000 0.000000 0.000000 -12.685049 -5.942961 -4.724588 0.126321 0.395292 2.514685 0.000000 0.000000 0.000000 22.878295 -12.835664 -7.848641 -5.694388 1.594752 7.688503 0.000000 0.000000 0.000000 -4.203092 -3.790538 -2.591578 -1.119064 0.037694 0.551130 0.000000 0.000000 0.000000 -2.249054 17.405164 16.231563 -6.628932 -2.540166 1.196940 0.000000 0.000000 0.000000 19.044189 17.614573 12.420632 12.757905 38.117794 -1.711695 -76.819914 68.749210 -55.960511 -21.504181 6.043755 -7.374302 1.742220 3.357272 -0.806266 -5.872084 2.025687 -8.786654 0.000000 0.000000 0.000000 2.243411 4.336789 -2.340901 -8.357029 0.737952 -4.539086 0.000000 0.000000 0.000000 -20.810712 10.076451 -6.363209 -10.692275 -1.128488 9.004481 0.000000 0.000000 0.000000 1.283491 2.513836 -1.479097 -12.400286 -0.435980 -4.701591 0.000000 0.000000 0.000000 3.433638 -6.520426 6.506632 10.218355 4.741084 1.222764 0.000000 0.000000 0.000000 
0.000027 0.705147 -0.000732 -2.708374 2.804537 -44.599505 14.480049 -0.527589 -24.267690 -20.250464 4.473896 72.574525 5.096003 2.106046 -10.769938 0.000000 0.000000 0.000000 -13.169945 -0.203791 -18.542783 18.033335 -10.792109 65.865559 10.250688 30.473264 -6.832625 0.000000 0.000000 0.000000 -9.316358 -1.195277 61.984060 3.724369 -0.400157 8.650187 1.472359 7.630290 -1.699551 -0.418313 -2.002001 11.931456 0.000000 0.000000 0.000000 -3.266315 -22.649748 11.065590 12.911722 -46.007412 -20.461068 17.812730 -78.937022 -9.302885 3.946554 -20.640645 3.553137 -20.919998 -2.949384 -0.099237 0.975033 0.632746 2.715143 0.000000 0.000000 0.000000 -13.070862 -5.800619 -4.705894 -0.871067 0.587682 2.760313 0.000000 0.000000 0.000000 22.787673 -12.762132 -7.817073 -5.635230 1.665935 8.022739 0.000000 0.000000 0.000000 -4.234223 -3.516411 -2.436310 -0.995624 0.037649 0.551648 0.000000 0.000000 0.000000 -2.266746 17.846993 16.620178 -8.052353 -2.396355 1.647631 0.000000 0.000000 0.000000 18.411037 18.264001 12.571422 13.046536 38.417665 -1.681304 -76.252659 68.153310 -55.128606 -21.515922 6.115045 -8.265791 2.439210 3.328165 -0.724962 -4.837334 1.906810 -8.721110 0.000000 0.000000 0.000000 2.707032 4.165329 -2.295829 -7.376774 0.705617 -4.919741 0.000000 0.000000 0.000000 -21.275009 10.203864 -6.619034 -9.324022 -1.381801 9.938264 0.000000 0.000000 0.000000 1.652810 2.573619 -1.508275 -11.588726 -0.433807 -4.144481 0.000000 0.000000 0.000000 3.694423 -6.188565 6.380273 10.079636 4.374623 1.248262 0.000000 0.000000 0.000000 
